# xmcd
#
# Track frame offsets: 
#        150
#        21044
#        44571
#        62893
#        84027
#        104146
#        122626
#        143397
#        162014
#        182137
#        202713
#        221365
#        245368
#        265647
#        298259
#        316246
#
# Disc length: 4501 seconds
#
# Revision: 0
# Processed by: cddbd v1.5.2PL0 Copyright (c) Steve Scherf et al.
# Submitted via: ExactAudioCopy v1.0b3
#
DISCID=d9119310
DTITLE=邰正宵 - 爱心行动
DYEAR=1995
DGENRE=Pop
TTITLE0=心要让你听见
TTITLE1=绝对宝贝
TTITLE2=爱的传说
TTITLE3=我的心透明得看得见
TTITLE4=心要让你听见
TTITLE5=一千零一夜
TTITLE6=用情太深(国)
TTITLE7=心太冷 梦太真
TTITLE8=怎样你才会喜欢
TTITLE9=爱不到要偷
TTITLE10=用情太深(粤)
TTITLE11=知己
TTITLE12=夜夜寂寞
TTITLE13=想你想的好孤寂
TTITLE14=千纸鹤
TTITLE15=找一个字代替
EXTD=
EXTT0=
EXTT1=
EXTT2=
EXTT3=
EXTT4=
EXTT5=
EXTT6=
EXTT7=
EXTT8=
EXTT9=
EXTT10=
EXTT11=
EXTT12=
EXTT13=
EXTT14=
EXTT15=
PLAYORDER=
